%TF.GenerationSoftware,KiCad,Pcbnew,9.0.0*%
%TF.CreationDate,2025-03-26T20:17:18-07:00*%
%TF.ProjectId,lab07,6c616230-372e-46b6-9963-61645f706362,rev?*%
%TF.SameCoordinates,Original*%
%TF.FileFunction,Soldermask,Bot*%
%TF.FilePolarity,Negative*%
%FSLAX46Y46*%
G04 Gerber Fmt 4.6, Leading zero omitted, Abs format (unit mm)*
G04 Created by KiCad (PCBNEW 9.0.0) date 2025-03-26 20:17:18*
%MOMM*%
%LPD*%
G01*
G04 APERTURE LIST*
%ADD10R,1.800000X1.800000*%
%ADD11C,1.800000*%
%ADD12C,1.600000*%
%ADD13O,1.600000X1.600000*%
%ADD14R,1.308000X1.308000*%
%ADD15C,1.308000*%
%ADD16R,1.400000X1.400000*%
%ADD17C,1.400000*%
%ADD18R,1.390000X1.390000*%
%ADD19C,1.390000*%
G04 APERTURE END LIST*
D10*
%TO.C,D1*%
X150368000Y-76962000D03*
D11*
X152908000Y-76962000D03*
%TD*%
D12*
%TO.C,R1*%
X141478000Y-74168000D03*
D13*
X141478000Y-81788000D03*
%TD*%
D14*
%TO.C,J2*%
X129394000Y-81631500D03*
D15*
X129394000Y-79631500D03*
X129394000Y-77631500D03*
X129394000Y-75631500D03*
%TD*%
D14*
%TO.C,J1*%
X129540000Y-97218000D03*
D15*
X129540000Y-95218000D03*
X129540000Y-93218000D03*
X129540000Y-91218000D03*
%TD*%
D16*
%TO.C,U1*%
X141478000Y-88646000D03*
D17*
X141478000Y-91186000D03*
X141478000Y-93726000D03*
X141478000Y-96266000D03*
X141478000Y-98806000D03*
X141478000Y-101346000D03*
X141478000Y-103886000D03*
X141478000Y-106426000D03*
X149098000Y-106426000D03*
X149098000Y-103886000D03*
X149098000Y-101346000D03*
X149098000Y-98806000D03*
X149098000Y-96266000D03*
X149098000Y-93726000D03*
X149098000Y-91186000D03*
X149098000Y-88646000D03*
%TD*%
D18*
%TO.C,J3*%
X161544000Y-75329500D03*
D19*
X164084000Y-75329500D03*
X161544000Y-77869500D03*
X164084000Y-77869500D03*
X161544000Y-80409500D03*
X164084000Y-80409500D03*
X161544000Y-82949500D03*
X164084000Y-82949500D03*
X161544000Y-85489500D03*
X164084000Y-85489500D03*
X161544000Y-88029500D03*
X164084000Y-88029500D03*
X161544000Y-90569500D03*
X164084000Y-90569500D03*
X161544000Y-93109500D03*
X164084000Y-93109500D03*
X161544000Y-95649500D03*
X164084000Y-95649500D03*
X161544000Y-98189500D03*
X164084000Y-98189500D03*
X161544000Y-100729500D03*
X164084000Y-100729500D03*
X161544000Y-103269500D03*
X164084000Y-103269500D03*
X161544000Y-105809500D03*
X164084000Y-105809500D03*
%TD*%
M02*
