M48
; DRILL file {KiCad 9.0.0} date 2025-03-26T20:17:22-0700
; FORMAT={-:-/ absolute / metric / decimal}
; #@! TF.CreationDate,2025-03-26T20:17:22-07:00
; #@! TF.GenerationSoftware,Kicad,Pcbnew,9.0.0
; #@! TF.FileFunction,Plated,1,2,PTH
FMAT,2
METRIC
; #@! TA.AperFunction,Plated,PTH,ComponentDrill
T1C0.800
; #@! TA.AperFunction,Plated,PTH,ComponentDrill
T2C0.900
; #@! TA.AperFunction,Plated,PTH,ComponentDrill
T3C1.040
%
G90
G05
T1
X129.394Y-75.632
X129.394Y-77.632
X129.394Y-79.632
X129.394Y-81.632
X129.54Y-91.218
X129.54Y-93.218
X129.54Y-95.218
X129.54Y-97.218
X141.478Y-74.168
X141.478Y-81.788
T2
X141.478Y-88.646
X141.478Y-91.186
X141.478Y-93.726
X141.478Y-96.266
X141.478Y-98.806
X141.478Y-101.346
X141.478Y-103.886
X141.478Y-106.426
X149.098Y-88.646
X149.098Y-91.186
X149.098Y-93.726
X149.098Y-96.266
X149.098Y-98.806
X149.098Y-101.346
X149.098Y-103.886
X149.098Y-106.426
X150.368Y-76.962
X152.908Y-76.962
T3
X161.544Y-75.329
X161.544Y-77.87
X161.544Y-80.409
X161.544Y-82.95
X161.544Y-85.489
X161.544Y-88.029
X161.544Y-90.569
X161.544Y-93.109
X161.544Y-95.649
X161.544Y-98.189
X161.544Y-100.73
X161.544Y-103.269
X161.544Y-105.809
X164.084Y-75.329
X164.084Y-77.87
X164.084Y-80.409
X164.084Y-82.95
X164.084Y-85.489
X164.084Y-88.029
X164.084Y-90.569
X164.084Y-93.109
X164.084Y-95.649
X164.084Y-98.189
X164.084Y-100.73
X164.084Y-103.269
X164.084Y-105.809
M30
