%TF.GenerationSoftware,KiCad,Pcbnew,9.0.0*%
%TF.CreationDate,2025-03-26T20:17:18-07:00*%
%TF.ProjectId,lab07,6c616230-372e-46b6-9963-61645f706362,rev?*%
%TF.SameCoordinates,Original*%
%TF.FileFunction,Legend,Bot*%
%TF.FilePolarity,Positive*%
%FSLAX46Y46*%
G04 Gerber Fmt 4.6, Leading zero omitted, Abs format (unit mm)*
G04 Created by KiCad (PCBNEW 9.0.0) date 2025-03-26 20:17:18*
%MOMM*%
%LPD*%
G01*
G04 APERTURE LIST*
%ADD10C,0.127000*%
%ADD11C,0.150000*%
%ADD12C,0.200000*%
G04 APERTURE END LIST*
D10*
X127067647Y-111222223D02*
X127115266Y-111174604D01*
X127115266Y-111174604D02*
X127067647Y-111126984D01*
X127067647Y-111126984D02*
X127020028Y-111174604D01*
X127020028Y-111174604D02*
X127067647Y-111222223D01*
X127067647Y-111222223D02*
X127067647Y-111126984D01*
X127067647Y-111746032D02*
X127115266Y-111698413D01*
X127115266Y-111698413D02*
X127067647Y-111650794D01*
X127067647Y-111650794D02*
X127020028Y-111698413D01*
X127020028Y-111698413D02*
X127067647Y-111746032D01*
X127067647Y-111746032D02*
X127067647Y-111650794D01*
X127543837Y-111126984D02*
X127543837Y-112126984D01*
X127543837Y-112126984D02*
X127781932Y-112126984D01*
X127781932Y-112126984D02*
X127924789Y-112079365D01*
X127924789Y-112079365D02*
X128020027Y-111984127D01*
X128020027Y-111984127D02*
X128067646Y-111888889D01*
X128067646Y-111888889D02*
X128115265Y-111698413D01*
X128115265Y-111698413D02*
X128115265Y-111555556D01*
X128115265Y-111555556D02*
X128067646Y-111365080D01*
X128067646Y-111365080D02*
X128020027Y-111269842D01*
X128020027Y-111269842D02*
X127924789Y-111174604D01*
X127924789Y-111174604D02*
X127781932Y-111126984D01*
X127781932Y-111126984D02*
X127543837Y-111126984D01*
D11*
X163401333Y-108674819D02*
X163401333Y-109389104D01*
X163401333Y-109389104D02*
X163448952Y-109531961D01*
X163448952Y-109531961D02*
X163544190Y-109627200D01*
X163544190Y-109627200D02*
X163687047Y-109674819D01*
X163687047Y-109674819D02*
X163782285Y-109674819D01*
X163020380Y-108674819D02*
X162401333Y-108674819D01*
X162401333Y-108674819D02*
X162734666Y-109055771D01*
X162734666Y-109055771D02*
X162591809Y-109055771D01*
X162591809Y-109055771D02*
X162496571Y-109103390D01*
X162496571Y-109103390D02*
X162448952Y-109151009D01*
X162448952Y-109151009D02*
X162401333Y-109246247D01*
X162401333Y-109246247D02*
X162401333Y-109484342D01*
X162401333Y-109484342D02*
X162448952Y-109579580D01*
X162448952Y-109579580D02*
X162496571Y-109627200D01*
X162496571Y-109627200D02*
X162591809Y-109674819D01*
X162591809Y-109674819D02*
X162877523Y-109674819D01*
X162877523Y-109674819D02*
X162972761Y-109627200D01*
X162972761Y-109627200D02*
X163020380Y-109579580D01*
D12*
%TO.C,J3*%
X160337500Y-73804500D02*
X160337500Y-107334500D01*
X160337500Y-107334500D02*
X165290500Y-107334500D01*
X165290500Y-73804500D02*
X160337500Y-73804500D01*
X165290500Y-73804500D02*
X165290500Y-107334500D01*
X161644000Y-73154500D02*
G75*
G02*
X161444000Y-73154500I-100000J0D01*
G01*
X161444000Y-73154500D02*
G75*
G02*
X161644000Y-73154500I100000J0D01*
G01*
%TD*%
M02*
